<svg width="756" height="169" viewBox="0 0 756 169" fill="none" xmlns="http://www.w3.org/2000/svg">
<path d="M102.114 24C102.313 24 102.504 24.0396 102.679 24.1097C106.006 24.4773 109.436 25.7769 112.525 28.0384C118.7 32.5603 121.72 39.6167 120.67 45.7003V54.7538C121.309 54.6813 121.954 54.6433 122.603 54.6433C127.217 54.6434 131.642 56.5057 134.905 59.8211C137.708 62.6702 139.454 66.392 139.891 70.3578H139.922V70.6632C139.973 71.2124 140 71.7659 140 72.3222H139.922V108.568H139.952C139.938 110.879 139.478 113.171 138.601 115.314C137.723 117.456 136.445 119.407 134.838 121.054C133.231 122.701 131.327 124.013 129.235 124.915C127.971 125.46 126.653 125.847 125.309 126.074V137.145C125.309 139.314 125.125 144 122.99 144H109.199C106.125 144 105.98 140.37 105.98 139.502V131.829C105.358 129.025 102.894 126.93 99.9474 126.93C99.8962 126.93 99.845 126.933 99.7941 126.934L99.7964 126.93H40.4095L40.4118 126.934C40.3609 126.933 40.3097 126.93 40.2585 126.93C36.8424 126.93 34.073 129.744 34.073 133.216C34.073 133.268 34.0756 133.32 34.0768 133.372L34.073 133.369L33.5993 141.073C33.5993 142.645 31.6533 144 30.7993 144H17.4494C14.8873 144 14.7433 138.962 14.7433 136.359V126.581C13.635 126.441 12.5424 126.194 11.4821 125.84C9.21635 125.083 7.14566 123.858 5.40082 122.243C3.65588 120.627 2.27454 118.657 1.34535 116.456C0.41622 114.255 -0.0406707 111.871 0.00283979 109.456L0.0526743 109.455V71.1436H0.071551C0.268251 66.8449 2.07222 62.7621 5.14787 59.706C8.41039 56.4643 12.8356 54.6433 17.4494 54.6433C18.0984 54.6433 18.7436 54.6805 19.3824 54.7515V42.8574H19.3892C19.5352 37.5204 22.5014 31.8697 27.7335 28.0384C31.4106 25.3457 35.5726 24.0161 39.4672 24.0008C39.4732 24.0007 39.4794 24 39.4853 24H102.114ZM23.2484 129.287C22.8213 129.287 22.4752 129.639 22.4752 130.073V135.573C22.4752 136.441 23.1675 137.145 24.0216 137.145H26.3411C26.7681 137.144 27.1143 136.793 27.1143 136.359V130.073C27.1143 129.639 26.7681 129.287 26.3411 129.287H23.2484ZM113.712 129.287C113.285 129.287 112.938 129.639 112.938 130.073V136.359C112.938 136.793 113.285 137.145 113.712 137.145H116.031C116.885 137.144 117.577 136.441 117.577 135.573V130.073C117.577 129.639 117.231 129.287 116.804 129.287H113.712ZM17.4494 62.3049C14.8805 62.3049 12.4167 63.3191 10.6002 65.124C8.93416 66.7795 7.93814 68.9759 7.78457 71.2978V109.376H7.84649C7.82259 110.702 8.07391 112.011 8.58419 113.22C9.09447 114.428 9.85267 115.511 10.8109 116.398C11.7225 117.242 12.7964 117.891 13.9701 118.31V118.287H122.99V118.326C124.125 118.28 125.246 118.027 126.299 117.574C127.443 117.08 128.484 116.363 129.363 115.462C130.242 114.561 130.942 113.494 131.422 112.322C131.902 111.15 132.153 109.896 132.161 108.632L132.19 108.631V70.9241C131.895 68.8305 130.941 66.875 129.452 65.3619C127.636 63.516 125.172 62.4791 122.603 62.4791C120.034 62.4791 117.57 63.516 115.754 65.3619C114.029 67.115 113.022 69.4615 112.926 71.9293H112.938V103.358C112.938 106.83 110.169 109.644 106.753 109.644H33.2998C29.8837 109.644 27.1143 106.83 27.1143 103.358V71.9293H27.1355C27.1355 69.3769 26.115 66.9289 24.2987 65.124C22.4822 63.3191 20.0183 62.305 17.4494 62.3049ZM40.4118 90.0048C40.3609 90.0036 40.3097 90.001 40.2585 90.001C37.9295 90.001 35.9013 91.3094 34.8462 93.2421V101.787H105.206V92.9781C104.116 91.1914 102.169 90.001 99.9474 90.001C99.8962 90.001 99.845 90.0036 99.7941 90.0048L99.7964 90.001H40.4095L40.4118 90.0048ZM37.939 31.6294C36.1499 32.0311 34.1516 33.0415 32.3182 34.5897C29.7324 36.7732 28.1291 39.4746 27.8875 41.6842V58.1016C28.5421 58.5894 29.1657 59.1244 29.751 59.706C33.0135 62.9478 34.8462 67.3448 34.8462 71.9293V81.5751C36.7278 79.9687 39.1551 79.0008 41.8049 79.0008H98.2477C100.898 79.0009 103.325 79.9687 105.206 81.5751V71.9293H105.211C105.31 67.3829 107.13 63.0438 110.302 59.8211C110.887 59.2262 111.511 58.6788 112.165 58.1798V39.7084C111.454 38.0015 110.116 36.1953 108.286 34.6495C106.405 33.0615 104.351 32.0406 102.527 31.6608H37.939V31.6294Z" fill="#339C5E"/>
<path d="M210.863 127.176C204.804 127.176 199.087 126.024 193.711 123.72C188.42 121.416 183.727 118.216 179.631 114.12C175.62 109.939 172.463 105.16 170.159 99.784C167.855 94.408 166.703 88.6053 166.703 82.376C166.703 76.0613 167.812 70.1307 170.031 64.584C172.25 58.952 175.322 54.0453 179.247 49.864C183.258 45.6827 187.866 42.3973 193.071 40.008C198.276 37.6187 203.823 36.424 209.711 36.424C215.855 36.424 221.572 37.576 226.863 39.88C232.239 42.184 236.89 45.4267 240.815 49.608C244.826 53.704 247.983 58.5253 250.287 64.072C252.591 69.6187 253.743 75.5493 253.743 81.864C253.743 88.0933 252.591 93.9387 250.287 99.4C248.068 104.776 244.996 109.597 241.071 113.864C237.146 118.045 232.58 121.331 227.375 123.72C222.255 126.024 216.751 127.176 210.863 127.176ZM210.095 115.528C214.532 115.528 218.671 114.675 222.511 112.968C226.436 111.261 229.85 108.872 232.751 105.8C235.652 102.643 237.914 99.0587 239.535 95.048C241.242 90.952 242.095 86.5147 242.095 81.736C242.095 77.128 241.242 72.8187 239.535 68.808C237.914 64.712 235.61 61.128 232.623 58.056C229.722 54.8987 226.351 52.424 222.511 50.632C218.671 48.84 214.575 47.944 210.223 47.944C205.871 47.944 201.775 48.84 197.935 50.632C194.095 52.424 190.682 54.856 187.695 57.928C184.794 61 182.49 64.584 180.783 68.68C179.162 72.776 178.351 77.1707 178.351 81.864C178.351 86.472 179.162 90.824 180.783 94.92C182.49 99.016 184.794 102.6 187.695 105.672C190.682 108.744 194.052 111.176 197.807 112.968C201.647 114.675 205.743 115.528 210.095 115.528ZM296.549 125.768C292.368 125.768 288.57 125 285.157 123.464C281.744 121.928 278.842 119.795 276.453 117.064C274.064 114.248 272.186 110.963 270.821 107.208C269.541 103.453 268.944 99.3147 269.029 94.792C269.029 90.3547 269.669 86.2587 270.949 82.504C272.229 78.7493 274.064 75.5067 276.453 72.776C278.928 69.96 281.829 67.8267 285.157 66.376C288.57 64.84 292.368 64.072 296.549 64.072C300.474 64.072 304.144 64.84 307.557 66.376C311.056 67.912 314.085 70.088 316.645 72.904C319.29 75.6347 321.338 78.92 322.789 82.76C324.325 86.6 325.093 90.7387 325.093 95.176C325.093 99.6133 324.325 103.709 322.789 107.464C321.338 111.219 319.29 114.461 316.645 117.192C314.085 119.923 311.056 122.056 307.557 123.592C304.144 125.043 300.474 125.768 296.549 125.768ZM269.925 151.496C268.304 151.496 267.066 151.24 266.213 150.728C265.445 150.301 264.89 149.661 264.549 148.808C264.293 147.955 264.165 146.931 264.165 145.736V70.088C264.165 68.8933 264.293 67.8693 264.549 67.016C264.805 66.1627 265.317 65.5227 266.085 65.096C266.938 64.584 268.176 64.328 269.797 64.328C271.674 64.328 273.04 64.6267 273.893 65.224C274.832 65.8213 275.386 66.888 275.557 68.424V145.608C275.642 146.803 275.557 147.827 275.301 148.68C275.045 149.619 274.49 150.301 273.637 150.728C272.869 151.24 271.632 151.496 269.925 151.496ZM294.885 115.272C298.469 115.272 301.712 114.419 304.613 112.712C307.514 110.92 309.776 108.488 311.397 105.416C313.104 102.344 313.957 98.8453 313.957 94.92C313.957 90.9093 313.104 87.4107 311.397 84.424C309.776 81.4373 307.514 79.1333 304.613 77.512C301.797 75.8053 298.554 74.952 294.885 74.952C291.301 74.952 288.058 75.8053 285.157 77.512C282.341 79.2187 280.08 81.5653 278.373 84.552C276.752 87.5387 275.941 90.9947 275.941 94.92C275.941 98.8453 276.752 102.344 278.373 105.416C280.08 108.488 282.341 110.92 285.157 112.712C288.058 114.419 291.301 115.272 294.885 115.272ZM367.873 126.92C362.753 126.92 358.188 126.067 354.177 124.36C350.166 122.653 346.753 120.349 343.937 117.448C341.206 114.461 339.116 111.048 337.665 107.208C336.214 103.368 335.489 99.2293 335.489 94.792C335.489 88.904 336.854 83.656 339.585 79.048C342.316 74.44 346.07 70.8133 350.849 68.168C355.713 65.4373 361.26 64.072 367.489 64.072C371.756 64.072 375.553 64.7547 378.881 66.12C382.294 67.4 385.196 69.1493 387.585 71.368C389.974 73.5867 391.809 76.0613 393.089 78.792C394.369 81.5227 395.009 84.2533 395.009 86.984C395.009 91.336 393.985 94.408 391.937 96.2C389.889 97.9067 387.372 98.76 384.385 98.76H347.393C347.308 102.515 348.289 105.757 350.337 108.488C352.47 111.133 355.116 113.181 358.273 114.632C361.516 116.083 364.758 116.808 368.001 116.808C370.39 116.808 372.438 116.68 374.145 116.424C375.852 116.168 377.345 115.827 378.625 115.4C379.905 114.973 381.014 114.547 381.953 114.12C382.892 113.693 383.702 113.267 384.385 112.84C385.153 112.413 385.878 112.115 386.561 111.944C387.329 111.773 388.054 111.859 388.737 112.2C389.505 112.456 390.102 113.011 390.529 113.864C391.041 114.547 391.382 115.187 391.553 115.784C391.724 116.381 391.809 117.021 391.809 117.704C391.809 118.899 390.785 120.221 388.737 121.672C386.689 123.123 383.83 124.36 380.161 125.384C376.577 126.408 372.481 126.92 367.873 126.92ZM347.393 91.208H379.521C381.142 91.208 382.337 90.9947 383.105 90.568C383.958 90.1413 384.385 88.9893 384.385 87.112C384.385 84.7227 383.66 82.5893 382.209 80.712C380.758 78.7493 378.753 77.1707 376.193 75.976C373.718 74.7813 370.86 74.184 367.617 74.184C363.862 74.184 360.406 74.952 357.249 76.488C354.177 77.9387 351.745 79.944 349.953 82.504C348.161 85.064 347.308 87.9653 347.393 91.208ZM413.446 126.152C411.825 126.152 410.587 125.896 409.734 125.384C408.966 124.957 408.454 124.317 408.198 123.464C408.027 122.611 407.942 121.587 407.942 120.392V69.576C407.942 68.4667 408.07 67.528 408.326 66.76C408.582 65.992 409.094 65.3947 409.862 64.968C410.715 64.5413 411.953 64.328 413.574 64.328C414.854 64.328 415.835 64.4987 416.518 64.84C417.286 65.096 417.798 65.48 418.054 65.992C418.395 66.504 418.609 67.0587 418.694 67.656C418.779 68.2533 418.822 68.808 418.822 69.32L418.566 75.208C419.419 73.7573 420.486 72.392 421.766 71.112C423.046 69.7467 424.539 68.552 426.246 67.528C427.953 66.4187 429.787 65.5653 431.75 64.968C433.798 64.3707 435.974 64.072 438.278 64.072C442.033 64.072 445.489 64.7547 448.646 66.12C451.803 67.4 454.491 69.32 456.71 71.88C459.014 74.3547 460.763 77.3413 461.958 80.84C463.238 84.3387 463.878 88.3067 463.878 92.744V120.52C463.878 121.715 463.75 122.739 463.494 123.592C463.323 124.445 462.811 125.085 461.958 125.512C461.19 125.939 459.995 126.152 458.374 126.152C456.667 126.152 455.387 125.896 454.534 125.384C453.766 124.957 453.254 124.317 452.998 123.464C452.742 122.611 452.614 121.587 452.614 120.392V92.616C452.614 89.032 452.017 85.9173 450.822 83.272C449.627 80.6267 447.835 78.5787 445.446 77.128C443.057 75.592 440.027 74.824 436.358 74.824C432.859 74.824 429.787 75.592 427.142 77.128C424.582 78.5787 422.577 80.6267 421.126 83.272C419.761 85.9173 419.078 89.032 419.078 92.616V120.52C419.078 121.715 418.95 122.739 418.694 123.592C418.438 124.445 417.883 125.085 417.03 125.512C416.262 125.939 415.067 126.152 413.446 126.152ZM505.688 127.56C502.445 127.56 499.373 127.176 496.472 126.408C493.656 125.64 491.053 124.616 488.664 123.336C486.36 121.971 484.312 120.477 482.52 118.856C480.728 117.235 479.32 115.613 478.296 113.992C477.357 112.627 476.76 111.517 476.504 110.664C476.248 109.725 476.291 108.829 476.632 107.976C477.059 107.123 477.869 106.184 479.064 105.16C480.429 104.136 481.624 103.667 482.648 103.752C483.672 103.752 484.611 104.136 485.464 104.904C486.403 105.672 487.341 106.696 488.28 107.976C490.413 110.877 493.016 113.011 496.088 114.376C499.16 115.656 502.189 116.296 505.176 116.296C509.016 116.296 512.429 115.784 515.416 114.76C518.403 113.736 520.749 112.2 522.456 110.152C524.248 108.019 525.144 105.288 525.144 101.96C525.144 99.2293 524.461 96.9253 523.096 95.048C521.731 93.1707 519.896 91.592 517.592 90.312C515.288 88.9467 512.728 87.7947 509.912 86.856C507.096 85.832 504.237 84.8507 501.336 83.912C499.032 83.144 496.771 82.2907 494.552 81.352C492.333 80.328 490.243 79.2187 488.28 78.024C486.317 76.744 484.568 75.2507 483.032 73.544C481.581 71.8373 480.429 69.832 479.576 67.528C478.808 65.224 478.424 62.536 478.424 59.464C478.424 54.7707 479.533 50.632 481.752 47.048C484.056 43.464 487.256 40.6907 491.352 38.728C495.448 36.68 500.184 35.656 505.56 35.656C508.717 35.656 511.619 35.9547 514.264 36.552C516.909 37.1493 519.256 37.96 521.304 38.984C523.352 39.9227 525.101 40.9467 526.552 42.056C528.003 43.08 529.112 44.0613 529.88 45C531.416 46.6213 532.269 47.9867 532.44 49.096C532.611 50.2053 531.971 51.5707 530.52 53.192C529.155 54.728 527.832 55.5387 526.552 55.624C525.272 55.7093 523.864 55.112 522.328 53.832C520.707 51.9547 519 50.504 517.208 49.48C515.501 48.456 513.667 47.7733 511.704 47.432C509.827 47.0053 507.736 46.792 505.432 46.792C503.213 46.792 501.123 47.0907 499.16 47.688C497.283 48.2 495.619 49.0107 494.168 50.12C492.803 51.2293 491.736 52.5947 490.968 54.216C490.2 55.752 489.816 57.544 489.816 59.592C489.816 61.896 490.413 63.8587 491.608 65.48C492.888 67.1013 494.552 68.5093 496.6 69.704C498.648 70.8133 500.952 71.8373 503.512 72.776C506.072 73.6293 508.76 74.4827 511.576 75.336C514.648 76.2747 517.677 77.4267 520.664 78.792C523.651 80.072 526.339 81.6933 528.728 83.656C531.117 85.5333 533.037 87.9227 534.488 90.824C535.939 93.7253 536.664 97.3093 536.664 101.576C536.664 105.843 535.811 109.597 534.104 112.84C532.483 116.083 530.221 118.813 527.32 121.032C524.419 123.165 521.091 124.787 517.336 125.896C513.667 127.005 509.784 127.56 505.688 127.56ZM579.123 126.92C574.003 126.92 569.438 126.067 565.427 124.36C561.416 122.653 558.003 120.349 555.187 117.448C552.456 114.461 550.366 111.048 548.915 107.208C547.464 103.368 546.739 99.2293 546.739 94.792C546.739 88.904 548.104 83.656 550.835 79.048C553.566 74.44 557.32 70.8133 562.099 68.168C566.963 65.4373 572.51 64.072 578.739 64.072C583.006 64.072 586.803 64.7547 590.131 66.12C593.544 67.4 596.446 69.1493 598.835 71.368C601.224 73.5867 603.059 76.0613 604.339 78.792C605.619 81.5227 606.259 84.2533 606.259 86.984C606.259 91.336 605.235 94.408 603.187 96.2C601.139 97.9067 598.622 98.76 595.635 98.76H558.643C558.558 102.515 559.539 105.757 561.587 108.488C563.72 111.133 566.366 113.181 569.523 114.632C572.766 116.083 576.008 116.808 579.251 116.808C581.64 116.808 583.688 116.68 585.395 116.424C587.102 116.168 588.595 115.827 589.875 115.4C591.155 114.973 592.264 114.547 593.203 114.12C594.142 113.693 594.952 113.267 595.635 112.84C596.403 112.413 597.128 112.115 597.811 111.944C598.579 111.773 599.304 111.859 599.987 112.2C600.755 112.456 601.352 113.011 601.779 113.864C602.291 114.547 602.632 115.187 602.803 115.784C602.974 116.381 603.059 117.021 603.059 117.704C603.059 118.899 602.035 120.221 599.987 121.672C597.939 123.123 595.08 124.36 591.411 125.384C587.827 126.408 583.731 126.92 579.123 126.92ZM558.643 91.208H590.771C592.392 91.208 593.587 90.9947 594.355 90.568C595.208 90.1413 595.635 88.9893 595.635 87.112C595.635 84.7227 594.91 82.5893 593.459 80.712C592.008 78.7493 590.003 77.1707 587.443 75.976C584.968 74.7813 582.11 74.184 578.867 74.184C575.112 74.184 571.656 74.952 568.499 76.488C565.427 77.9387 562.995 79.944 561.203 82.504C559.411 85.064 558.558 87.9653 558.643 91.208ZM671.8 126.152C669.923 126.152 668.557 125.768 667.704 125C666.936 124.232 666.467 123.037 666.296 121.416L666.808 115.016C665.955 116.381 664.632 117.96 662.84 119.752C661.048 121.459 658.701 122.995 655.8 124.36C652.899 125.64 649.357 126.28 645.176 126.28C641.08 126.28 637.24 125.469 633.656 123.848C630.157 122.227 627.043 119.965 624.312 117.064C621.667 114.163 619.576 110.835 618.04 107.08C616.589 103.325 615.864 99.3147 615.864 95.048C615.864 90.8667 616.589 86.9413 618.04 83.272C619.576 79.5173 621.709 76.232 624.44 73.416C627.171 70.6 630.285 68.3813 633.784 66.76C637.368 65.1387 641.165 64.328 645.176 64.328C648.931 64.328 652.131 64.84 654.776 65.864C657.421 66.8027 659.683 68.0827 661.56 69.704C663.523 71.24 665.229 72.9893 666.68 74.952L666.424 69.576C666.339 67.6987 666.723 66.376 667.576 65.608C668.515 64.7547 669.965 64.328 671.928 64.328C673.549 64.328 674.701 64.584 675.384 65.096C676.152 65.608 676.664 66.3333 676.92 67.272C677.176 68.2107 677.304 69.3627 677.304 70.728V120.136C677.304 121.331 677.176 122.397 676.92 123.336C676.664 124.275 676.152 124.957 675.384 125.384C674.616 125.896 673.421 126.152 671.8 126.152ZM647.096 115.528C650.509 115.528 653.624 114.632 656.44 112.84C659.341 111.048 661.603 108.659 663.224 105.672C664.931 102.6 665.784 99.1013 665.784 95.176C665.784 91.1653 664.888 87.6667 663.096 84.68C661.389 81.608 659.085 79.2187 656.184 77.512C653.368 75.72 650.253 74.824 646.84 74.824C642.829 74.824 639.331 75.7627 636.344 77.64C633.443 79.432 631.139 81.864 629.432 84.936C627.725 88.008 626.872 91.5067 626.872 95.432C626.872 99.272 627.725 102.728 629.432 105.8C631.139 108.787 633.485 111.176 636.472 112.968C639.544 114.675 643.085 115.528 647.096 115.528ZM721.748 126.28C717.737 126.28 714.324 125.896 711.508 125.128C708.777 124.36 706.516 123.165 704.724 121.544C702.932 119.923 701.652 117.832 700.884 115.272C700.116 112.627 699.732 109.384 699.732 105.544V48.968C699.732 47.7733 699.86 46.7493 700.116 45.896C700.372 45.0427 700.884 44.4027 701.652 43.976C702.42 43.464 703.615 43.208 705.236 43.208C706.857 43.208 708.095 43.464 708.948 43.976C709.801 44.4027 710.356 45.0427 710.612 45.896C710.868 46.664 710.996 47.6453 710.996 48.84V105.544C710.996 107.763 711.167 109.555 711.508 110.92C711.935 112.2 712.532 113.181 713.3 113.864C714.153 114.547 715.263 114.973 716.628 115.144C717.993 115.315 719.657 115.4 721.62 115.4C722.985 115.4 724.095 115.528 724.948 115.784C725.801 116.04 726.441 116.552 726.868 117.32C727.295 118.088 727.508 119.24 727.508 120.776C727.508 122.397 727.252 123.635 726.74 124.488C726.313 125.256 725.631 125.725 724.692 125.896C723.839 126.152 722.857 126.28 721.748 126.28ZM693.076 65.736L705.364 65.864L723.156 65.608C724.351 65.608 725.375 65.736 726.228 65.992C727.081 66.1627 727.721 66.6747 728.148 67.528C728.66 68.296 728.916 69.4907 728.916 71.112C728.916 72.7333 728.703 73.9707 728.276 74.824C727.849 75.592 727.209 76.104 726.356 76.36C725.503 76.616 724.479 76.744 723.284 76.744L705.748 76.488L692.82 76.616C691.028 76.616 689.791 76.1893 689.108 75.336C688.511 74.4827 688.212 73.0747 688.212 71.112C688.212 69.2347 688.596 67.8693 689.364 67.016C690.132 66.1627 691.369 65.736 693.076 65.736Z" fill="#339C5E"/>
</svg>
